<svg width="55" height="50" viewBox="0 0 55 50" fill="none" xmlns="http://www.w3.org/2000/svg">
<g clip-path="url(#clip0_38_1868)">
<path d="M3.81603 24.8609C7.42079 25.4999 10.0723 24.3414 12.2683 21.6699C14.4044 23.8183 16.7946 25.556 20.0039 25.5209C23.2274 25.4858 25.7165 23.9798 27.6724 21.5225C33.6851 26.4512 37.2581 26.4863 42.2362 21.5927C44.6865 24.0149 47.4651 25.6824 51.2605 24.7732C51.3064 25.4261 51.377 25.9281 51.377 26.4301C51.3841 32.6016 51.3911 38.7765 51.377 44.948C51.37 48.5498 49.8836 49.9926 46.2082 49.9961C33.7945 49.9996 21.3809 49.9996 8.96721 49.9961C5.33773 49.9961 3.84428 48.5006 3.83721 44.8918C3.82662 38.8924 3.81956 32.8965 3.8125 26.897C3.8125 26.2651 3.81603 25.6297 3.81603 24.8609ZM12.3389 28.0906C12.3389 34.8729 12.3389 41.5182 12.3389 48.1812C16.7416 48.1812 21.0066 48.1812 25.3175 48.1812C25.3175 41.4445 25.3175 34.7992 25.3175 28.0906C20.9678 28.0906 16.7522 28.0906 12.3389 28.0906ZM37.6429 28.0274C36.3507 28.0274 35.055 28.0555 33.7628 28.0204C32.6012 27.9888 32.0116 28.4416 32.0257 29.6528C32.0539 32.3874 32.0539 35.1221 32.0292 37.8568C32.0186 38.8994 32.5482 39.3628 33.5262 39.3663C36.2907 39.3839 39.0516 39.3839 41.8161 39.3733C42.8753 39.3698 43.4155 38.8678 43.4013 37.748C43.366 35.073 43.3696 32.3945 43.4013 29.716C43.4155 28.5364 42.8788 28.0063 41.7031 28.0239C40.3474 28.0415 38.9951 28.0274 37.6429 28.0274Z" fill="#FF004E"/>
<path d="M14.457 15.6355C15.4456 10.4224 16.4024 5.34976 17.3839 0.175293C20.4697 0.175293 23.499 0.175293 26.6447 0.175293C26.6447 5.31115 26.6447 10.4049 26.6447 15.6355C22.641 15.6355 18.6161 15.6355 14.457 15.6355Z" fill="#FF004E"/>
<path d="M12.3917 15.6953C8.35976 15.6953 4.56081 15.6953 0.542969 15.6953C1.95522 11.8864 3.31804 8.20737 4.69145 4.53188C6.34731 0.101632 6.35084 0.101632 11.2054 0.0840798C12.4871 0.0805693 13.7687 0.0840798 15.3186 0.0840798C14.3265 5.37791 13.3697 10.4787 12.3917 15.6953Z" fill="#FF004E"/>
<path d="M40.4294 15.6952C36.5105 15.6952 32.768 15.6952 28.8984 15.6952C28.8984 10.4927 28.8984 5.36034 28.8984 0.136719C31.8006 0.136719 34.6004 0.136719 37.5979 0.136719C38.5335 5.27258 39.4726 10.433 40.4294 15.6952Z" fill="#FF004E"/>
<path d="M54.4523 15.678C50.3709 15.678 46.5296 15.678 42.4941 15.678C41.5585 10.5386 40.6229 5.38169 39.6484 0.0352076C41.7597 0.0352076 43.6945 -0.0701073 45.6011 0.0913755C46.3072 0.151054 47.2922 0.681139 47.5853 1.2709C49.9296 5.98199 52.1327 10.7598 54.4523 15.678Z" fill="#FF004E"/>
<path d="M14.217 17.7451C18.4361 17.7451 22.5351 17.7451 26.6165 17.7451C26.9378 20.4412 25.1831 22.5685 21.9455 23.3303C19.9543 23.7972 17.9771 23.6147 16.1412 22.5931C13.6839 21.2205 13.4014 20.5325 14.217 17.7451Z" fill="#FF004E"/>
<path d="M28.9908 17.7485C32.8639 17.7485 36.7617 17.7485 40.6454 17.7485C41.4186 20.42 40.2464 22.2139 37.0865 23.0038C34.5621 23.6356 32.2142 23.1863 30.1841 21.4767C28.6766 20.2024 28.5918 19.9356 28.9908 17.7485Z" fill="#FF004E"/>
<path d="M43.1402 17.64C46.8262 17.64 50.4027 17.6365 53.9828 17.6435C54.3252 17.6435 54.6677 17.7067 55.0031 17.7418C54.8795 20.9364 51.9315 23.3867 48.5315 23.1901C45.2727 23.0041 42.9284 20.6977 43.1402 17.64Z" fill="#FF004E"/>
<path d="M0.0449449 17.6646C4.0522 17.6646 8.07711 17.6646 12.1091 17.6646C11.6607 21.168 8.93858 23.3094 5.38324 23.1199C2.4846 22.9654 -0.406974 19.9429 0.0449449 17.6646Z" fill="#FF004E"/>
</g>
<defs>
<clipPath id="clip0_38_1868">
<rect width="55" height="50" fill="white"/>
</clipPath>
</defs>
</svg>
