<svg width="635" height="614" viewBox="0 0 635 614" fill="none" xmlns="http://www.w3.org/2000/svg">
<path d="M634.43 341.535L634.31 342.775C633.62 391.385 634.32 419.675 633.67 470.915C633.44 477.845 633.45 484.855 631.31 491.565C628.06 501.745 620.74 505.615 610.31 502.865C603.9 501.175 598.34 497.635 592.67 494.425C548.61 469.435 504.82 443.945 460.47 419.465C436.75 406.375 426.3 386.155 425.31 360.415C422.54 288.515 424.06 216.565 423.84 144.645C423.83 140.345 427.04 136.715 431.32 136.225C469.96 131.815 508.59 127.275 547.23 122.825C560.83 121.255 574.381 119.155 588.101 118.855C621.871 118.105 633.86 136.015 634.33 169.915C634.68 195.055 634.86 221.075 634.33 246.215C634.05 259.295 634.53 271.715 634.33 284.795C634.13 297.875 634.33 310.735 634.33 323.815C634.32 328.615 634.74 339.685 634.43 341.535Z" fill="#01F1EA"/>
<path d="M0.670416 237.995C0.660416 237.965 0.640386 237.925 0.640386 237.895C0.640386 204.175 0.640386 179.395 0.640386 128.265C0.640386 120.135 0.640386 95.2053 0.640386 82.1353C0.640386 71.8053 9.14046 69.2753 23.2205 75.8553C37.6205 80.6853 99.9204 112.125 121.12 120.335C151.78 132.205 166.01 156.815 173.4 187.755C175.41 196.175 175.751 200.805 175.771 215.945C175.781 224.535 175.551 352.855 175.771 412.805C175.791 418.315 174.061 419.905 168.841 420.875C121.631 429.645 74.5204 438.945 27.1604 446.915C8.48041 450.055 0.340425 444.185 0.430425 424.735C0.630425 382.215 1.15038 360.395 0.630376 317.765C0.490376 306.325 0.630376 275.095 0.630376 263.645C0.260376 263.635 1.00042 239.215 0.670416 237.995Z" fill="#FE014E"/>
<path d="M222.83 468.175C222.82 465.465 224.56 463.495 227.96 462.955C258.82 458.045 289.19 450.445 320.19 446.275C351.45 442.065 382.59 441.595 413.18 450.625C430.36 455.695 445.28 465.715 460.87 474.115C491.41 490.575 521.48 507.905 551.93 524.535C561.77 531.335 569.29 531.245 568.35 546.795C567.57 559.635 560.26 559.655 538.32 565.405C515.33 570.535 514.34 570.205 498.91 573.745C434.81 585.265 401.4 592.185 337.29 603.695C318.41 607.085 299.63 611.495 280.48 612.885C248.03 615.235 225.69 595.585 222.82 563.175C223.19 544.765 222.88 483.925 222.83 468.175Z" fill="#051B34"/>
<path d="M372.911 243.685C373.581 272.535 371.861 301.395 372.621 330.205C373.631 368.795 342.751 396.935 312.281 402.395C284.131 407.435 256.021 412.725 227.921 418.075C224.011 418.815 222.961 417.835 222.951 413.925C222.871 352.755 222.641 291.605 222.831 230.435C222.881 213.055 226.681 196.315 237.221 181.855C249.551 164.925 267.171 156.425 287.021 153.285C310.771 149.515 318.231 148.985 341.761 146.155C341.961 146.135 358.001 144.535 358.211 144.515C364.451 143.805 369.861 142.875 371.751 146.665C372.981 149.125 372.621 152.915 372.621 157.825C372.691 186.445 372.911 215.045 372.911 243.685Z" fill="#FE014E"/>
<path d="M57.3615 47.3851C52.0615 44.4551 50.2314 34.1251 63.6814 32.4051C84.7814 29.7051 99.8015 28.0452 99.8015 28.0452C99.8015 28.0452 170.741 19.7552 209.211 15.3152C247.671 11.7452 286.132 6.04516 324.602 2.54516C334.162 1.67516 343.722 0.265062 353.342 0.825062C366.142 1.57506 370.981 6.53512 372.411 19.2551C372.421 19.3451 372.431 19.4351 372.431 19.5251C372.691 30.6251 372.691 52.6551 372.691 52.6551C372.691 52.6551 372.691 77.5051 372.691 89.5051C372.811 93.9851 371.951 95.6251 367.691 96.9751C290.271 121.555 213.931 118.225 138.491 88.6451C104.191 75.1851 57.3715 47.3951 57.3615 47.3851Z" fill="#FE014E"/>
<path d="M35.7804 503.875C34.0504 501.465 35.4703 498.075 38.3903 497.535C49.9803 495.385 61.0405 493.325 72.0905 491.285C104.21 485.345 136.34 479.445 168.46 473.475C176 472.075 175.94 471.985 175.99 479.815C176.19 510.885 177.69 541.945 175.88 573.015C175.79 574.495 175.7 575.975 175.58 577.445C174.31 593.105 156.12 601.215 143.76 591.525C143.69 591.475 143.63 591.425 143.56 591.375C113.24 567.475 96.4503 554.255 66.1703 530.295C62.2203 526.345 39.8204 509.495 35.7804 503.875Z" fill="#051B34"/>
<path d="M596.002 63.0751C601.192 66.2351 599.372 74.2052 593.342 74.9252C579.452 76.5852 565.562 78.2452 551.682 79.8952C511.712 84.6552 471.732 89.3151 431.782 94.2251C418.962 95.8051 418.982 96.0952 419.002 83.0052C419.022 64.5952 419.052 46.1852 419.092 27.7852C419.092 25.7452 419.082 23.6852 419.322 21.6552C420.842 9.05519 428.372 4.1452 440.352 8.1652C455.842 13.3552 471.282 18.6751 486.692 24.1051C521.542 36.3851 556.292 48.9652 591.252 60.9252C593.052 61.5352 594.632 62.2351 596.002 63.0751Z" fill="#01F1EA"/>
</svg>
