<svg width="96" height="91" viewBox="0 0 96 91" fill="none" xmlns="http://www.w3.org/2000/svg">
<path d="M63.6758 20.0883C71.2293 19.195 78.7828 18.257 86.3813 17.4531C92.6309 16.7831 95.958 19.731 95.8231 26.1181C95.6883 35.0064 95.3286 43.8501 95.0588 52.7385C94.8789 58.6343 94.6541 64.4854 94.4743 70.3812C94.3394 73.8651 92.541 74.937 89.4386 73.1504C82.4247 69.2199 75.4107 65.2 68.4417 61.2248C65.0696 59.3042 63.9456 55.865 63.8557 52.4705C63.496 41.7955 63.6758 31.1206 63.6758 20.0883Z" fill="#01F2EB"/>
<path d="M27.1219 62.9669C19.5684 64.3962 12.1048 65.8701 4.59626 67.1207C1.89858 67.5674 1.404 65.4235 1.35904 63.4135C1.13424 57.9644 0.999353 52.5152 0.819508 47.0661C0.54974 37.7758 0.324934 28.4854 0.100127 19.1951C0.0551659 18.2571 0.0551659 17.2745 0.100127 16.3365C0.459817 11.1554 1.71873 10.4407 6.34975 12.7633C10.3963 14.7732 14.2629 17.1405 18.4893 18.7038C24.7839 20.9817 26.5374 25.8502 26.987 31.7013C27.1668 33.9346 27.1219 36.1678 27.1219 38.4457C27.1219 46.4408 27.1219 54.4358 27.1219 62.9669Z" fill="#FF004E"/>
<path d="M34.3154 68.1025C42.6332 66.8072 50.6363 64.172 59.0441 65.5119C60.7076 65.7799 62.4611 66.1372 63.9448 66.8965C70.4193 70.2911 76.8038 73.775 83.0984 77.4375C84.2224 78.1075 84.8968 79.5814 85.796 80.6534C84.5821 81.4574 83.4131 82.7526 82.0643 82.976C69.2952 85.4325 56.5262 87.7551 43.7123 89.9437C38.182 90.8817 34.4502 87.7998 34.3154 82.2613C34.2254 77.7055 34.3154 73.105 34.3154 68.1025Z" fill="#FEFEFE"/>
<path d="M56.1659 20.9814C56.1659 30.8971 56.3457 40.2768 56.076 49.6564C55.9411 54.1676 52.0294 58.1428 47.6232 59.0808C43.3069 59.9741 38.9907 60.6887 34.1348 61.582C34.1348 58.6341 34.1348 55.9096 34.1348 53.185C34.0899 47.1105 34.0449 40.9914 34.0449 34.917C34.0449 27.2346 37.5069 23.2594 45.1504 22.2321C48.7023 21.7854 52.2093 21.4281 56.1659 20.9814Z" fill="#FF004E"/>
<path d="M6.48438 4.81267C9.85647 4.27669 12.5542 3.69604 15.2518 3.42805C27.2565 2.26676 39.2612 1.15013 51.2209 0.0781665C55.4023 -0.279154 56.1666 0.480152 56.2116 4.63401C56.2116 7.8499 56.2116 11.0211 56.2116 13.8797C38.2271 19.9095 22.2658 15.3983 6.48438 4.81267Z" fill="#FF004E"/>
<path d="M6.125 73.2394C13.7235 71.8548 20.2878 70.6488 27.2119 69.3535C27.2119 74.758 27.4816 79.9391 27.1219 85.0756C26.8522 88.3362 25.0537 88.8722 22.5359 86.9516C17.8599 83.3337 13.2738 79.7158 8.68779 76.0086C8.01337 75.428 7.47384 74.6687 6.125 73.2394Z" fill="#FEFEFE"/>
<path d="M90.0668 10.7543C81.0296 11.8262 72.3071 12.8535 62.9551 13.9702C62.9551 10.129 62.8652 6.73442 63.0001 3.33988C63.0451 1.50861 64.1691 0.436647 66.0125 1.06196C73.8358 3.74186 81.6141 6.5111 89.3924 9.28033C89.5273 9.36966 89.5722 9.68232 90.0668 10.7543Z" fill="#01F2EB"/>
</svg>
